<svg width="422" height="265" viewBox="0 0 422 265" fill="none" xmlns="http://www.w3.org/2000/svg">
<path d="M174.5 245.3C167.5 251.3 157.7 255.9 145.1 259.1C132.5 262.5 116.3 264.2 96.5 264.2C76.9 264.2 60.8 262.1 48.2 257.9C35.8 253.9 26 248.5 18.8 241.7C11.8 234.9 6.9 227.1 4.1 218.3C1.5 209.5 0.200001 200.4 0.200001 191V97.7C0.200001 88.5 1.5 80 4.1 72.2C6.7 64.2 11.4 57.4 18.2 51.8L57.2 19.4C64.2 13.4 73.9 8.79999 86.3 5.59999C98.9 2.19998 115.2 0.499981 135.2 0.499981C154.8 0.499981 170.8 2.09998 183.2 5.29999C195.8 8.49998 205.6 13 212.6 18.8C219.8 24.4 224.7 31.2 227.3 39.2C229.9 47 231.2 55.6 231.2 65V167.3C231.2 176.5 229.9 185 227.3 192.8C224.7 200.6 220 207.3 213.2 212.9L174.5 245.3ZM228.2 167.3V65C228.2 55.8 226.8 47.5 224 40.1C221.4 32.5 216.6 26 209.6 20.6C202.8 15.2 193.3 11 181.1 7.99999C169.1 4.99999 153.8 3.5 135.2 3.5C116.6 3.5 101.2 4.99999 89 7.99999C76.8 11 67.2 15.2 60.2 20.6C53.4 26 48.6 32.5 45.8 40.1C43.2 47.5 41.9 55.8 41.9 65V167.3C41.9 176.5 43.2 184.9 45.8 192.5C48.6 199.9 53.4 206.3 60.2 211.7C67.2 216.9 76.8 221 89 224C101.2 227 116.6 228.5 135.2 228.5C153.8 228.5 169.1 227 181.1 224C193.3 221 202.8 216.9 209.6 211.7C216.6 206.3 221.4 199.9 224 192.5C226.8 184.9 228.2 176.5 228.2 167.3ZM195.5 160.4C195.5 172.4 191.2 182.2 182.6 189.8C174 197.2 158 200.9 134.6 200.9C111.2 200.9 95.3 197.2 86.9 189.8C78.5 182.2 74.3 172.4 74.3 160.4V71.9C74.3 59.9 78.5 50.2 86.9 42.8C95.3 35.2 111.2 31.4 134.6 31.4C158 31.4 174 35.2 182.6 42.8C191.2 50.2 195.5 59.9 195.5 71.9V160.4ZM77.3 160.4C77.3 171.6 81.3 180.7 89.3 187.7C97.3 194.5 112.4 197.9 134.6 197.9C156.8 197.9 172 194.5 180.2 187.7C188.4 180.7 192.5 171.6 192.5 160.4V71.9C192.5 60.7 188.4 51.7 180.2 44.9C172 37.9 156.8 34.4 134.6 34.4C112.4 34.4 97.3 37.9 89.3 44.9C81.3 51.7 77.3 60.7 77.3 71.9V160.4ZM110 156.5V75.8C110 72 111.5 68.8 114.5 66.2C117.5 63.4 124.4 62 135.2 62C146 62 152.9 63.4 155.9 66.2C158.9 68.8 160.4 72 160.4 75.8V156.5C160.4 160.5 158.9 163.9 155.9 166.7C152.9 169.3 146 170.6 135.2 170.6C124.4 170.6 117.5 169.3 114.5 166.7C111.5 163.9 110 160.5 110 156.5ZM113 156.5C113 158.5 113.4 160.3 114.2 161.9C115 163.3 116.5 164.5 118.7 165.5V108.5C118.7 106.5 118.3 104.8 117.5 103.4C116.7 101.8 115.2 100.6 113 99.8V156.5ZM266.574 133.1V142.4H383.574V133.1C383.574 127.7 383.074 122.7 382.074 118.1C381.274 113.5 380.174 109.2 378.774 105.2L358.074 56.3C355.874 51.1 353.574 46.8 351.174 43.4C348.774 39.8 344.774 38 339.174 38H309.774C303.774 38 299.574 39.8 297.174 43.4C294.774 46.8 292.574 51 290.574 56L271.374 105.2C269.974 109.2 268.774 113.5 267.774 118.1C266.974 122.7 266.574 127.7 266.574 133.1ZM314.574 71C315.374 69.2 316.174 67.9 316.974 67.1C317.974 66.3 319.074 65.9 320.274 65.9H327.774C328.974 65.9 329.974 66.3 330.774 67.1C331.774 67.9 332.674 69.2 333.474 71L347.574 116.6H300.474L314.574 71ZM383.574 197V145.4H266.574V197H263.574V133.1C263.574 127.5 263.974 122.4 264.774 117.8C265.774 113 267.074 108.4 268.674 104L287.874 54.8C290.074 49.2 292.574 44.5 295.374 40.7C298.174 36.9 302.974 35 309.774 35H339.174C345.774 35 350.374 36.9 352.974 40.7C355.774 44.5 358.374 49.3 360.774 55.1L381.474 104C383.074 108.4 384.274 113 385.074 117.8C386.074 122.4 386.574 127.5 386.574 133.1V197H383.574ZM297.474 213.2V171.2H350.574V213.2C350.574 217 351.474 219.8 353.274 221.6C355.274 223.2 358.274 224 362.274 224H407.574C411.374 224 414.074 223.2 415.674 221.6C417.474 219.8 418.374 217 418.374 213.2V134C418.374 128 417.374 121.1 415.374 113.3C413.574 105.5 410.674 96.4 406.674 86L380.574 17.9C379.374 14.5 377.474 12 374.874 10.4C372.474 8.79999 369.374 7.99999 365.574 7.99999H284.874C280.874 7.99999 277.574 8.79999 274.974 10.4C272.574 12 270.774 14.5 269.574 17.9L243.474 86C239.474 96.4 236.474 105.5 234.474 113.3C232.674 121.1 231.774 128 231.774 134V213.2C231.774 217 232.574 219.8 234.174 221.6C235.974 223.2 238.774 224 242.574 224H286.674C290.474 224 293.174 223.2 294.774 221.6C296.574 219.8 297.474 217 297.474 213.2ZM257.274 256.7C256.474 257.5 255.174 258.2 253.374 258.8C251.774 259.4 249.974 259.7 247.974 259.7H203.874C199.074 259.7 195.574 258.6 193.374 256.4C191.174 254.2 190.074 250.7 190.074 245.9V166.7C190.074 160.5 190.974 153.5 192.774 145.7C194.774 137.7 197.874 128.3 202.074 117.5L227.874 49.7C228.474 47.9 229.174 46.4 229.974 45.2C230.974 43.8 231.974 42.6 232.974 41.6L233.274 41.3L271.674 9.19999C273.274 7.79999 275.174 6.79999 277.374 6.2C279.574 5.4 282.074 4.99999 284.874 4.99999H365.574C370.174 4.99999 373.874 5.99999 376.674 7.99999C379.674 9.79999 381.874 12.7 383.274 16.7L409.374 84.8C413.574 95.6 416.574 105 418.374 113C420.374 120.8 421.374 127.8 421.374 134V213.2C421.374 215.8 420.974 218 420.174 219.8C419.574 221.6 418.574 223.1 417.174 224.3L378.174 256.7C377.374 257.5 376.074 258.2 374.274 258.8C372.674 259.4 370.874 259.7 368.874 259.7H323.574C318.574 259.7 314.874 258.5 312.474 256.1C310.074 253.9 308.874 250.5 308.874 245.9V206.9H300.474V213.2C300.474 215.8 300.074 218 299.274 219.8C298.674 221.6 297.674 223.1 296.274 224.3L257.274 256.7Z" fill="#0F6AD5"/>
<path d="M174.5 245.3L170.648 240.699L170.622 240.722L170.595 240.744L174.5 245.3ZM145.1 259.1L143.623 253.285L143.58 253.296L143.537 253.307L145.1 259.1ZM48.2 257.9L50.0974 252.208L50.0697 252.199L50.042 252.19L48.2 257.9ZM18.8 241.7L14.6193 246.004L14.6496 246.033L14.6803 246.062L18.8 241.7ZM4.1 218.3L-1.65411 220L-1.63645 220.06L-1.61755 220.119L4.1 218.3ZM4.1 72.2L9.7921 74.0974L9.79923 74.076L9.8062 74.0545L4.1 72.2ZM18.2 51.8L22.0142 56.4316L22.0242 56.4234L22.0341 56.4151L18.2 51.8ZM57.2 19.4L61.0341 24.0151L61.0697 23.9856L61.1047 23.9555L57.2 19.4ZM86.3 5.59999L87.7993 11.4096L87.8313 11.4014L87.8631 11.3928L86.3 5.59999ZM183.2 5.29999L181.701 11.1097L181.712 11.1125L181.723 11.1154L183.2 5.29999ZM212.6 18.8L208.772 23.4201L208.843 23.4792L208.916 23.5361L212.6 18.8ZM227.3 39.2L221.594 41.0545L221.601 41.0759L221.608 41.0973L227.3 39.2ZM227.3 192.8L221.608 190.903L221.608 190.903L227.3 192.8ZM213.2 212.9L209.386 208.268L209.367 208.284L209.348 208.299L213.2 212.9ZM224 40.1L218.323 42.0421L218.354 42.1333L218.388 42.2233L224 40.1ZM209.6 20.6L205.869 25.2987L205.902 25.3249L205.935 25.3507L209.6 20.6ZM181.1 7.99999L179.645 13.8208L179.656 13.8237L179.667 13.8264L181.1 7.99999ZM89 7.99999L87.5673 2.17356L87.5673 2.17356L89 7.99999ZM60.2 20.6L56.5352 15.8493L56.5018 15.8751L56.4687 15.9013L60.2 20.6ZM45.8 40.1L40.1699 38.0258L40.1543 38.0683L40.1392 38.1111L45.8 40.1ZM45.8 192.5L40.123 194.442L40.1542 194.533L40.1883 194.623L45.8 192.5ZM60.2 211.7L56.4687 216.399L56.5444 216.459L56.6221 216.516L60.2 211.7ZM89 224L87.5673 229.826L87.5673 229.826L89 224ZM181.1 224L179.667 218.174L179.656 218.176L179.645 218.179L181.1 224ZM209.6 211.7L213.245 216.466L213.255 216.458L213.265 216.451L209.6 211.7ZM224 192.5L218.37 190.426L218.354 190.468L218.339 190.511L224 192.5ZM182.6 189.8L186.513 194.348L186.543 194.322L186.573 194.296L182.6 189.8ZM86.9 189.8L82.8745 194.249L82.904 194.276L82.9338 194.302L86.9 189.8ZM86.9 42.8L90.8662 47.3021L90.896 47.2759L90.9255 47.2492L86.9 42.8ZM182.6 42.8L178.627 47.296L178.657 47.3222L178.687 47.3481L182.6 42.8ZM89.3 187.7L85.349 192.215L85.3813 192.244L85.4141 192.272L89.3 187.7ZM180.2 187.7L184.03 192.319L184.063 192.291L184.096 192.263L180.2 187.7ZM180.2 44.9L176.304 49.4634L176.337 49.4912L176.37 49.5185L180.2 44.9ZM89.3 44.9L93.1859 49.4716L93.2187 49.4438L93.251 49.4155L89.3 44.9ZM114.5 66.2L118.43 70.7341L118.513 70.6617L118.594 70.5863L114.5 66.2ZM155.9 66.2L151.806 70.5863L151.887 70.6617L151.97 70.7341L155.9 66.2ZM155.9 166.7L159.83 171.234L159.913 171.162L159.994 171.086L155.9 166.7ZM114.5 166.7L110.406 171.086L110.487 171.162L110.57 171.234L114.5 166.7ZM114.2 161.9L108.833 164.583L108.908 164.732L108.991 164.877L114.2 161.9ZM118.7 165.5L116.217 170.962L124.7 174.818V165.5H118.7ZM117.5 103.4L112.133 106.083L112.208 106.232L112.291 106.377L117.5 103.4ZM113 99.8L115.05 94.1612L107 91.2338V99.8H113ZM170.595 240.744C164.524 245.948 155.671 250.225 143.623 253.285L146.577 264.915C159.729 261.575 170.476 256.652 178.405 249.856L170.595 240.744ZM143.537 253.307C131.637 256.518 116.014 258.2 96.5 258.2V270.2C116.586 270.2 133.363 268.482 146.663 264.893L143.537 253.307ZM96.5 258.2C77.268 258.2 61.8689 256.132 50.0974 252.208L46.3026 263.592C59.7311 268.068 76.532 270.2 96.5 270.2V258.2ZM50.042 252.19C38.2353 248.381 29.2991 243.363 22.9197 237.338L14.6803 246.062C22.7009 253.637 33.3647 259.419 46.358 263.61L50.042 252.19ZM22.9807 237.396C16.6483 231.245 12.3007 224.285 9.81756 216.481L-1.61755 220.119C1.4993 229.915 6.9517 238.555 14.6193 246.004L22.9807 237.396ZM9.85411 216.6C7.42116 208.365 6.2 199.839 6.2 191H-5.8C-5.8 200.961 -4.42116 210.635 -1.65411 220L9.85411 216.6ZM6.2 191V97.7H-5.8V191H6.2ZM6.2 97.7C6.2 89.069 7.41873 81.2175 9.7921 74.0974L-1.5921 70.3026C-4.41872 78.7825 -5.8 87.931 -5.8 97.7H6.2ZM9.8062 74.0545C12.0358 67.1942 16.0528 61.341 22.0142 56.4316L14.3858 47.1684C6.74725 53.459 1.3642 61.2058 -1.6062 70.3455L9.8062 74.0545ZM22.0341 56.4151L61.0341 24.0151L53.3659 14.7848L14.3659 47.1849L22.0341 56.4151ZM61.1047 23.9555C67.1929 18.7371 75.9616 14.4645 87.7993 11.4096L84.8007 -0.209677C71.8384 3.13544 61.2071 8.06284 53.2953 14.8444L61.1047 23.9555ZM87.8631 11.3928C99.7592 8.18273 115.479 6.49998 135.2 6.49998V-5.50002C114.921 -5.50002 98.0408 -3.78277 84.7369 -0.192819L87.8631 11.3928ZM135.2 6.49998C154.531 6.49998 169.976 8.08402 181.701 11.1097L184.699 -0.509673C171.624 -3.88406 155.069 -5.50002 135.2 -5.50002V6.49998ZM181.723 11.1154C193.805 14.1838 202.687 18.378 208.772 23.4201L216.428 14.1799C208.513 7.62197 197.795 2.81616 184.677 -0.515395L181.723 11.1154ZM208.916 23.5361C215.253 28.4645 219.396 34.2925 221.594 41.0545L233.006 37.3455C230.004 28.1075 224.347 20.3355 216.284 14.0639L208.916 23.5361ZM221.608 41.0973C223.977 48.2049 225.2 56.154 225.2 65H237.2C237.2 55.046 235.823 45.795 232.992 37.3026L221.608 41.0973ZM225.2 65V167.3H237.2V65H225.2ZM225.2 167.3C225.2 175.931 223.981 183.783 221.608 190.903L232.992 194.697C235.819 186.217 237.2 177.069 237.2 167.3H225.2ZM221.608 190.903C219.39 197.556 215.38 203.332 209.386 208.268L217.014 217.532C224.62 211.268 230.01 203.644 232.992 194.697L221.608 190.903ZM209.348 208.299L170.648 240.699L178.352 249.901L217.052 217.501L209.348 208.299ZM234.2 167.3V65H222.2V167.3H234.2ZM234.2 65C234.2 55.1907 232.707 46.1559 229.612 37.9766L218.388 42.2233C220.893 48.8441 222.2 56.4093 222.2 65H234.2ZM229.677 38.1579C226.658 29.3335 221.099 21.8927 213.265 15.8493L205.935 25.3507C212.101 30.1073 216.142 35.6665 218.323 42.0421L229.677 38.1579ZM213.331 15.9013C205.623 9.77999 195.225 5.29469 182.533 2.17356L179.667 13.8264C191.375 16.7053 199.977 20.62 205.869 25.2987L213.331 15.9013ZM182.555 2.17914C169.905 -0.983377 154.071 -2.5 135.2 -2.5V9.5C153.529 9.5 168.295 10.9834 179.645 13.8208L182.555 2.17914ZM135.2 -2.5C116.325 -2.5 100.402 -0.9825 87.5673 2.17356L90.4327 13.8264C101.998 10.9825 116.875 9.5 135.2 9.5V-2.5ZM87.5673 2.17356C74.873 5.2951 64.4131 9.77207 56.5352 15.8493L63.8648 25.3507C69.9869 20.6279 78.727 16.7049 90.4327 13.8264L87.5673 2.17356ZM56.4687 15.9013C48.8717 21.9342 43.3778 29.3187 40.1699 38.0258L51.4301 42.1742C53.8222 35.6813 57.9283 30.0657 63.9313 25.2987L56.4687 15.9013ZM40.1392 38.1111C37.2796 46.2499 35.9 55.2372 35.9 65H47.9C47.9 56.3628 49.1204 48.75 51.4608 42.0889L40.1392 38.1111ZM35.9 65V167.3H47.9V65H35.9ZM35.9 167.3C35.9 177.066 37.2806 186.133 40.123 194.442L51.477 190.558C49.1194 183.667 47.9 175.934 47.9 167.3H35.9ZM40.1883 194.623C43.4081 203.133 48.9063 210.393 56.4687 216.399L63.9313 207.001C57.8937 202.207 53.7919 196.667 51.4117 190.377L40.1883 194.623ZM56.6221 216.516C64.4796 222.354 74.9064 226.713 87.5673 229.826L90.4327 218.174C78.6936 215.287 69.9204 211.446 63.7779 206.884L56.6221 216.516ZM87.5673 229.826C100.402 232.982 116.325 234.5 135.2 234.5V222.5C116.875 222.5 101.998 221.018 90.4327 218.174L87.5673 229.826ZM135.2 234.5C154.071 234.5 169.905 232.983 182.555 229.821L179.645 218.179C168.295 221.017 153.529 222.5 135.2 222.5V234.5ZM182.533 229.826C195.192 226.714 205.556 222.346 213.245 216.466L205.955 206.934C200.044 211.454 191.408 215.286 179.667 218.174L182.533 229.826ZM213.265 216.451C221.063 210.435 226.629 203.118 229.661 194.489L218.339 190.511C216.171 196.682 212.137 202.165 205.935 206.949L213.265 216.451ZM229.63 194.574C232.706 186.226 234.2 177.113 234.2 167.3H222.2C222.2 175.887 220.894 183.574 218.37 190.426L229.63 194.574ZM189.5 160.4C189.5 170.769 185.873 178.901 178.627 185.304L186.573 194.296C196.527 185.499 201.5 174.031 201.5 160.4H189.5ZM178.687 185.252C171.858 191.127 157.841 194.9 134.6 194.9V206.9C158.159 206.9 176.142 203.273 186.513 194.348L178.687 185.252ZM134.6 194.9C123.178 194.9 113.843 193.993 106.485 192.281C99.0892 190.56 94.0584 188.11 90.8662 185.298L82.9338 194.302C88.1416 198.89 95.2608 201.99 103.765 203.969C112.307 205.957 122.622 206.9 134.6 206.9V194.9ZM90.9255 185.351C83.8645 178.962 80.3 170.818 80.3 160.4H68.3C68.3 173.982 73.1355 185.438 82.8745 194.249L90.9255 185.351ZM80.3 160.4V71.9H68.3V160.4H80.3ZM80.3 71.9C80.3 61.4831 83.8607 53.4737 90.8662 47.3021L82.9338 38.2978C73.1393 46.9263 68.3 58.3169 68.3 71.9H80.3ZM90.9255 47.2492C97.5245 41.2787 111.353 37.4 134.6 37.4V25.4C111.047 25.4 93.0755 29.1213 82.8745 38.3508L90.9255 47.2492ZM134.6 37.4C157.821 37.4 171.806 41.2683 178.627 47.296L186.573 38.304C176.194 29.1317 158.179 25.4 134.6 25.4V37.4ZM178.687 47.3481C185.877 53.5354 189.5 61.5327 189.5 71.9H201.5C201.5 58.2672 196.523 46.8645 186.513 38.2519L178.687 47.3481ZM189.5 71.9V160.4H201.5V71.9H189.5ZM71.3 160.4C71.3 173.225 75.9696 184.009 85.349 192.215L93.251 183.185C86.6304 177.391 83.3 169.975 83.3 160.4H71.3ZM85.4141 192.272C90.4215 196.528 97.2253 199.384 105.307 201.203C113.431 203.033 123.23 203.9 134.6 203.9V191.9C123.77 191.9 114.919 191.067 107.943 189.497C100.925 187.916 96.1786 185.672 93.1859 183.128L85.4141 192.272ZM134.6 203.9C156.942 203.9 174.074 200.575 184.03 192.319L176.37 183.081C169.926 188.425 156.658 191.9 134.6 191.9V203.9ZM184.096 192.263C193.689 184.074 198.5 173.278 198.5 160.4H186.5C186.5 169.922 183.111 177.326 176.304 183.137L184.096 192.263ZM198.5 160.4V71.9H186.5V160.4H198.5ZM198.5 71.9C198.5 59.0196 193.684 48.2869 184.03 40.2814L176.37 49.5185C183.116 55.1131 186.5 62.3804 186.5 71.9H198.5ZM184.096 40.3366C174.13 31.8291 156.962 28.4 134.6 28.4V40.4C156.638 40.4 169.87 43.9709 176.304 49.4634L184.096 40.3366ZM134.6 28.4C123.222 28.4 113.41 29.2933 105.27 31.18C97.1683 33.0579 90.3544 36.0048 85.349 40.3845L93.251 49.4155C96.2456 46.7952 100.982 44.4921 107.98 42.87C114.94 41.2567 123.778 40.4 134.6 40.4V28.4ZM85.4141 40.3284C75.9743 48.3522 71.3 59.0735 71.3 71.9H83.3C83.3 62.3265 86.6257 55.0478 93.1859 49.4716L85.4141 40.3284ZM71.3 71.9V160.4H83.3V71.9H71.3ZM116 156.5V75.8H104V156.5H116ZM116 75.8C116 73.8269 116.677 72.2526 118.43 70.7341L110.57 61.6659C106.323 65.3474 104 70.1731 104 75.8H116ZM118.594 70.5863C118.892 70.3085 120.07 69.5487 123.118 68.9302C126.026 68.3401 130.013 68 135.2 68V56C129.587 56 124.724 56.3599 120.732 57.1698C116.88 57.9513 113.108 59.2915 110.406 61.8137L118.594 70.5863ZM135.2 68C140.387 68 144.374 68.3401 147.282 68.9302C150.33 69.5487 151.508 70.3085 151.806 70.5863L159.994 61.8137C157.292 59.2915 153.52 57.9513 149.668 57.1698C145.676 56.3599 140.813 56 135.2 56V68ZM151.97 70.7341C153.723 72.2526 154.4 73.8269 154.4 75.8H166.4C166.4 70.1731 164.077 65.3474 159.83 61.6659L151.97 70.7341ZM154.4 75.8V156.5H166.4V75.8H154.4ZM154.4 156.5C154.4 158.789 153.626 160.615 151.806 162.314L159.994 171.086C164.174 167.185 166.4 162.211 166.4 156.5H154.4ZM151.97 162.166C151.676 162.421 150.464 163.145 147.364 163.729C144.42 164.283 140.403 164.6 135.2 164.6V176.6C140.797 176.6 145.63 176.267 149.586 175.521C153.386 174.805 157.124 173.579 159.83 171.234L151.97 162.166ZM135.2 164.6C129.997 164.6 125.98 164.283 123.036 163.729C119.936 163.145 118.724 162.421 118.43 162.166L110.57 171.234C113.276 173.579 117.014 174.805 120.814 175.521C124.77 176.267 129.603 176.6 135.2 176.6V164.6ZM118.594 162.314C116.774 160.615 116 158.789 116 156.5H104C104 162.211 106.226 167.185 110.406 171.086L118.594 162.314ZM107 156.5C107 159.32 107.57 162.056 108.833 164.583L119.567 159.217C119.23 158.544 119 157.68 119 156.5H107ZM108.991 164.877C110.657 167.794 113.411 169.687 116.217 170.962L121.183 160.038C119.589 159.313 119.343 158.806 119.409 158.923L108.991 164.877ZM124.7 165.5V108.5H112.7V165.5H124.7ZM124.7 108.5C124.7 105.704 124.138 102.923 122.709 100.423L112.291 106.377C112.462 106.677 112.7 107.296 112.7 108.5H124.7ZM122.867 100.717C121.189 97.3612 118.234 95.3189 115.05 94.1612L110.95 105.439C111.565 105.663 111.885 105.871 112.027 105.985C112.15 106.084 112.15 106.116 112.133 106.083L122.867 100.717ZM107 99.8V156.5H119V99.8H107ZM266.574 142.4H260.574V148.4H266.574V142.4ZM383.574 142.4V148.4H389.574V142.4H383.574ZM382.074 118.1L376.163 119.128L376.184 119.252L376.211 119.375L382.074 118.1ZM378.774 105.2L384.437 103.218L384.374 103.037L384.3 102.861L378.774 105.2ZM358.074 56.3L352.548 58.6378L352.549 58.6389L358.074 56.3ZM351.174 43.4L346.182 46.7282L346.226 46.7947L346.272 46.8601L351.174 43.4ZM297.174 43.4L302.076 46.8601L302.122 46.7947L302.167 46.7282L297.174 43.4ZM290.574 56L285.003 53.7717L284.994 53.7952L284.985 53.8187L290.574 56ZM271.374 105.2L265.785 103.019L265.746 103.118L265.711 103.218L271.374 105.2ZM267.774 118.1L261.911 116.825L261.884 116.948L261.863 117.072L267.774 118.1ZM314.574 71L309.091 68.5632L308.947 68.888L308.842 69.2275L314.574 71ZM316.974 67.1L313.226 62.4148L312.967 62.6224L312.732 62.8573L316.974 67.1ZM330.774 67.1L326.532 71.3426L326.767 71.5776L327.026 71.7852L330.774 67.1ZM333.474 71L339.206 69.2275L339.101 68.888L338.957 68.5632L333.474 71ZM347.574 116.6V122.6H355.71L353.306 114.828L347.574 116.6ZM300.474 116.6L294.742 114.828L292.339 122.6H300.474V116.6ZM383.574 197H377.574V203H383.574V197ZM383.574 145.4H389.574V139.4H383.574V145.4ZM266.574 145.4V139.4H260.574V145.4H266.574ZM266.574 197V203H272.574V197H266.574ZM263.574 197H257.574V203H263.574V197ZM264.774 117.8L258.9 116.576L258.88 116.674L258.863 116.772L264.774 117.8ZM268.674 104L263.085 101.819L263.059 101.884L263.035 101.95L268.674 104ZM287.874 54.8L282.29 52.6061L282.285 52.6187L287.874 54.8ZM295.374 40.7L300.205 44.2592L300.205 44.2592L295.374 40.7ZM352.974 40.7L348.022 44.0881L348.082 44.1747L348.144 44.2592L352.974 40.7ZM360.774 55.1L355.23 57.3941L355.239 57.4166L355.249 57.4389L360.774 55.1ZM381.474 104L387.113 101.95L387.06 101.804L387 101.661L381.474 104ZM385.074 117.8L379.156 118.786L379.18 118.931L379.211 119.075L385.074 117.8ZM386.574 197V203H392.574V197H386.574ZM297.474 171.2V165.2H291.474V171.2H297.474ZM350.574 171.2H356.574V165.2H350.574V171.2ZM353.274 221.6L349.032 225.843L349.267 226.078L349.526 226.285L353.274 221.6ZM415.674 221.6L419.917 225.843L419.917 225.843L415.674 221.6ZM415.374 113.3L409.528 114.649L409.544 114.72L409.562 114.79L415.374 113.3ZM406.674 86L401.072 88.1473L401.074 88.1539L406.674 86ZM380.574 17.9L374.916 19.8969L374.943 19.9724L374.972 20.0472L380.574 17.9ZM374.874 10.4L371.546 15.3923L371.637 15.4528L371.73 15.51L374.874 10.4ZM274.974 10.4L271.83 5.29005L271.737 5.3472L271.646 5.40769L274.974 10.4ZM269.574 17.9L275.177 20.0472L275.206 19.9724L275.232 19.8969L269.574 17.9ZM243.474 86L249.074 88.1539L249.077 88.1473L243.474 86ZM234.474 113.3L228.662 111.81L228.644 111.88L228.628 111.951L234.474 113.3ZM234.174 221.6L229.69 225.586L229.924 225.85L230.188 226.084L234.174 221.6ZM294.774 221.6L290.532 217.357L290.532 217.357L294.774 221.6ZM257.274 256.7L253.44 252.085L253.227 252.262L253.032 252.457L257.274 256.7ZM253.374 258.8L251.477 253.108L251.371 253.143L251.267 253.182L253.374 258.8ZM192.774 145.7L186.953 144.245L186.94 144.298L186.928 144.351L192.774 145.7ZM202.074 117.5L207.666 119.675L207.674 119.654L207.682 119.634L202.074 117.5ZM227.874 49.7L233.482 51.8339L233.527 51.7165L233.566 51.5974L227.874 49.7ZM229.974 45.2L225.092 41.7126L225.036 41.7913L224.982 41.8718L229.974 45.2ZM232.974 41.6L228.732 37.3573L228.732 37.3573L232.974 41.6ZM233.274 41.3L229.426 36.6966L229.221 36.8681L229.032 37.0573L233.274 41.3ZM271.674 9.19999L275.522 13.8034L275.574 13.76L275.625 13.7154L271.674 9.19999ZM277.374 6.2L278.953 11.9886L279.192 11.9234L279.425 11.8388L277.374 6.2ZM376.674 7.99999L373.187 12.8824L373.382 13.0217L373.587 13.145L376.674 7.99999ZM383.274 16.7L377.611 18.6821L377.64 18.7651L377.672 18.8472L383.274 16.7ZM409.374 84.8L403.772 86.9473L403.777 86.961L403.782 86.9747L409.374 84.8ZM418.374 113L412.521 114.317L412.54 114.404L412.562 114.49L418.374 113ZM420.174 219.8L414.691 217.363L414.574 217.628L414.482 217.903L420.174 219.8ZM417.174 224.3L421.008 228.915L421.044 228.886L421.079 228.856L417.174 224.3ZM378.174 256.7L374.34 252.085L374.127 252.262L373.932 252.457L378.174 256.7ZM374.274 258.8L372.377 253.108L372.271 253.143L372.167 253.182L374.274 258.8ZM312.474 256.1L316.717 251.857L316.625 251.765L316.529 251.677L312.474 256.1ZM308.874 206.9H314.874V200.9H308.874V206.9ZM300.474 206.9V200.9H294.474V206.9H300.474ZM299.274 219.8L293.791 217.363L293.674 217.628L293.582 217.903L299.274 219.8ZM296.274 224.3L300.108 228.915L300.144 228.886L300.179 228.856L296.274 224.3ZM260.574 133.1V142.4H272.574V133.1H260.574ZM266.574 148.4H383.574V136.4H266.574V148.4ZM389.574 142.4V133.1H377.574V142.4H389.574ZM389.574 133.1C389.574 127.333 389.04 121.9 387.937 116.825L376.211 119.375C377.108 123.5 377.574 128.067 377.574 133.1H389.574ZM387.985 117.072C387.135 112.18 385.956 107.558 384.437 103.218L373.111 107.182C374.392 110.842 375.414 114.82 376.163 119.128L387.985 117.072ZM384.3 102.861L363.6 53.961L352.549 58.6389L373.249 107.539L384.3 102.861ZM363.6 53.9622C361.288 48.4967 358.793 43.7895 356.076 39.9399L346.272 46.8601C348.355 49.8104 350.461 53.7033 352.548 58.6378L363.6 53.9622ZM356.167 40.0718C352.331 34.3186 346.119 32 339.174 32V44C343.429 44 345.217 45.2813 346.182 46.7282L356.167 40.0718ZM339.174 32H309.774V44H339.174V32ZM309.774 32C302.615 32 296.094 34.2031 292.182 40.0718L302.167 46.7282C303.054 45.3969 304.933 44 309.774 44V32ZM292.272 39.9399C289.537 43.8157 287.13 48.4563 285.003 53.7717L296.145 58.2283C298.019 53.5437 300.012 49.7842 302.076 46.8601L292.272 39.9399ZM284.985 53.8187L265.785 103.019L276.964 107.381L296.164 58.1813L284.985 53.8187ZM265.711 103.218C264.222 107.473 262.958 112.012 261.911 116.825L273.637 119.375C274.591 114.988 275.727 110.927 277.037 107.182L265.711 103.218ZM261.863 117.072C260.996 122.059 260.574 127.408 260.574 133.1H272.574C272.574 127.992 272.953 123.341 273.685 119.128L261.863 117.072ZM320.057 73.4368C320.378 72.7148 320.657 72.188 320.884 71.8196C321.118 71.4396 321.24 71.3197 321.217 71.3427L312.732 62.8573C311.161 64.4276 310.002 66.5133 309.091 68.5632L320.057 73.4368ZM320.722 71.7852C320.76 71.7551 320.719 71.7955 320.6 71.8388C320.476 71.8838 320.356 71.9 320.274 71.9V59.9C317.617 59.9 315.213 60.825 313.226 62.4148L320.722 71.7852ZM320.274 71.9H327.774V59.9H320.274V71.9ZM327.774 71.9C327.698 71.9 327.481 71.885 327.196 71.7709C326.904 71.6539 326.677 71.4877 326.532 71.3426L335.017 62.8574C333.018 60.8586 330.458 59.9 327.774 59.9V71.9ZM327.026 71.7852C326.98 71.7481 327.073 71.8114 327.266 72.0903C327.458 72.3678 327.708 72.7998 327.991 73.4368L338.957 68.5632C337.958 66.3148 336.569 64.0518 334.522 62.4148L327.026 71.7852ZM327.742 72.7724L341.842 118.372L353.306 114.828L339.206 69.2275L327.742 72.7724ZM347.574 110.6H300.474V122.6H347.574V110.6ZM306.206 118.372L320.306 72.7724L308.842 69.2275L294.742 114.828L306.206 118.372ZM389.574 197V145.4H377.574V197H389.574ZM383.574 139.4H266.574V151.4H383.574V139.4ZM260.574 145.4V197H272.574V145.4H260.574ZM266.574 191H263.574V203H266.574V191ZM269.574 197V133.1H257.574V197H269.574ZM269.574 133.1C269.574 127.779 269.955 123.029 270.685 118.828L258.863 116.772C257.994 121.771 257.574 127.221 257.574 133.1H269.574ZM270.648 119.024C271.592 114.491 272.816 110.169 274.313 106.05L263.035 101.95C261.333 106.631 259.956 111.509 258.9 116.576L270.648 119.024ZM274.264 106.181L293.464 56.9813L282.285 52.6187L263.085 101.819L274.264 106.181ZM293.459 56.9939C295.517 51.7538 297.785 47.5423 300.205 44.2592L290.544 37.1408C287.363 41.4577 284.631 46.6461 282.29 52.6061L293.459 56.9939ZM300.205 44.2592C301.434 42.5905 303.993 41 309.774 41V29C301.955 29 294.914 31.2095 290.544 37.1408L300.205 44.2592ZM309.774 41H339.174V29H309.774V41ZM339.174 41C344.715 41 346.976 42.5588 348.022 44.0881L357.926 37.3119C353.772 31.2412 346.834 29 339.174 29V41ZM348.144 44.2592C350.579 47.5639 352.959 51.9055 355.23 57.3941L366.318 52.8059C363.789 46.6945 360.97 41.4361 357.805 37.1408L348.144 44.2592ZM355.249 57.4389L375.949 106.339L387 101.661L366.3 52.761L355.249 57.4389ZM375.835 106.05C377.305 110.092 378.414 114.335 379.156 118.786L390.993 116.814C390.135 111.665 388.843 106.708 387.113 101.95L375.835 106.05ZM379.211 119.075C380.105 123.186 380.574 127.85 380.574 133.1H392.574C392.574 127.15 392.044 121.614 390.937 116.525L379.211 119.075ZM380.574 133.1V197H392.574V133.1H380.574ZM386.574 191H383.574V203H386.574V191ZM303.474 213.2V171.2H291.474V213.2H303.474ZM297.474 177.2H350.574V165.2H297.474V177.2ZM344.574 171.2V213.2H356.574V171.2H344.574ZM344.574 213.2C344.574 217.815 345.656 222.467 349.032 225.843L357.517 217.357C357.292 217.133 356.574 216.185 356.574 213.2H344.574ZM349.526 226.285C353.042 229.098 357.633 230 362.274 230V218C358.915 218 357.506 217.302 357.022 216.915L349.526 226.285ZM362.274 230H407.574V218H362.274V230ZM407.574 230C411.947 230 416.633 229.127 419.917 225.843L411.432 217.357C411.491 217.298 411.367 217.463 410.745 217.647C410.103 217.837 409.084 218 407.574 218V230ZM419.917 225.843C423.292 222.467 424.374 217.815 424.374 213.2H412.374C412.374 216.185 411.656 217.133 411.432 217.357L419.917 225.843ZM424.374 213.2V134H412.374V213.2H424.374ZM424.374 134C424.374 127.36 423.271 119.942 421.186 111.81L409.562 114.79C411.477 122.258 412.374 128.64 412.374 134H424.374ZM421.221 111.951C419.338 103.795 416.339 94.415 412.274 83.8461L401.074 88.1539C405.009 98.385 407.81 107.205 409.528 114.649L421.221 111.951ZM412.277 83.8527L386.177 15.7527L374.972 20.0472L401.072 88.1473L412.277 83.8527ZM386.232 15.9031C384.662 11.4529 381.991 7.73467 378.019 5.29004L371.73 15.51C372.957 16.2653 374.087 17.547 374.916 19.8969L386.232 15.9031ZM378.202 5.40769C374.548 2.97166 370.189 1.99999 365.574 1.99999V14C368.56 14 370.4 14.6283 371.546 15.3923L378.202 5.40769ZM365.574 1.99999H284.874V14H365.574V1.99999ZM284.874 1.99999C280.101 1.99999 275.626 2.95371 271.83 5.29005L278.119 15.5099C279.522 14.6463 281.648 14 284.874 14V1.99999ZM271.646 5.40769C267.921 7.89132 265.439 11.5895 263.916 15.9031L275.232 19.8969C276.11 17.4105 277.228 16.1087 278.302 15.3923L271.646 5.40769ZM263.972 15.7527L237.872 83.8527L249.077 88.1473L275.177 20.0472L263.972 15.7527ZM237.874 83.8461C233.82 94.3874 230.737 103.718 228.662 111.81L240.286 114.79C242.211 107.282 245.129 98.4126 249.074 88.1539L237.874 83.8461ZM228.628 111.951C226.757 120.056 225.774 127.424 225.774 134H237.774C237.774 128.576 238.591 122.144 240.321 114.649L228.628 111.951ZM225.774 134V213.2H237.774V134H225.774ZM225.774 213.2C225.774 217.661 226.685 222.205 229.69 225.586L238.659 217.614C238.464 217.395 237.774 216.339 237.774 213.2H225.774ZM230.188 226.084C233.569 229.09 238.113 230 242.574 230V218C239.436 218 238.38 217.31 238.16 217.116L230.188 226.084ZM242.574 230H286.674V218H242.574V230ZM286.674 230C291.047 230 295.733 229.127 299.017 225.843L290.532 217.357C290.591 217.298 290.467 217.463 289.845 217.647C289.203 217.837 288.184 218 286.674 218V230ZM299.017 225.843C302.392 222.467 303.474 217.815 303.474 213.2H291.474C291.474 216.185 290.756 217.133 290.532 217.357L299.017 225.843ZM253.032 252.457C253.148 252.341 253.138 252.39 252.855 252.542C252.579 252.69 252.137 252.888 251.477 253.108L255.272 264.492C257.432 263.772 259.756 262.704 261.517 260.943L253.032 252.457ZM251.267 253.182C250.445 253.49 249.375 253.7 247.974 253.7V265.7C250.573 265.7 253.103 265.31 255.481 264.418L251.267 253.182ZM247.974 253.7H203.874V265.7H247.974V253.7ZM203.874 253.7C199.822 253.7 198.21 252.75 197.617 252.157L189.132 260.643C192.939 264.45 198.327 265.7 203.874 265.7V253.7ZM197.617 252.157C197.024 251.564 196.074 249.953 196.074 245.9H184.074C184.074 251.447 185.325 256.836 189.132 260.643L197.617 252.157ZM196.074 245.9V166.7H184.074V245.9H196.074ZM196.074 166.7C196.074 161.063 196.895 154.527 198.621 147.049L186.928 144.351C185.054 152.473 184.074 159.937 184.074 166.7H196.074ZM198.595 147.155C200.515 139.475 203.524 130.326 207.666 119.675L196.482 115.325C192.224 126.274 189.033 135.925 186.953 144.245L198.595 147.155ZM207.682 119.634L233.482 51.8339L222.267 47.5661L196.467 115.366L207.682 119.634ZM233.566 51.5974C234.047 50.154 234.538 49.1703 234.967 48.5282L224.982 41.8718C223.81 43.6297 222.901 45.646 222.182 47.8026L233.566 51.5974ZM234.857 48.6874C235.704 47.5009 236.494 46.5653 237.217 45.8426L228.732 37.3573C227.454 38.6347 226.244 40.099 225.092 41.7126L234.857 48.6874ZM237.217 45.8427L237.517 45.5427L229.032 37.0573L228.732 37.3573L237.217 45.8427ZM237.122 45.9034L275.522 13.8034L267.826 4.59657L229.426 36.6966L237.122 45.9034ZM275.625 13.7154C276.492 12.9569 277.565 12.3671 278.953 11.9886L275.796 0.411408C272.783 1.23286 270.056 2.6431 267.723 4.68455L275.625 13.7154ZM279.425 11.8388C280.853 11.3195 282.64 11 284.874 11V-1.00001C281.508 -1.00001 278.296 -0.519468 275.324 0.561237L279.425 11.8388ZM284.874 11H365.574V-1.00001H284.874V11ZM365.574 11C369.339 11 371.697 11.8183 373.187 12.8824L380.162 3.11759C376.051 0.181645 371.009 -1.00001 365.574 -1.00001V11ZM373.587 13.145C375.146 14.08 376.572 15.7145 377.611 18.6821L388.937 14.7179C387.176 9.68551 384.203 5.51996 379.761 2.85503L373.587 13.145ZM377.672 18.8472L403.772 86.9473L414.977 82.6527L388.877 14.5527L377.672 18.8472ZM403.782 86.9747C407.914 97.5998 410.807 106.701 412.521 114.317L424.228 111.683C422.342 103.299 419.234 93.6001 414.966 82.6253L403.782 86.9747ZM412.562 114.49C414.472 121.94 415.374 128.426 415.374 134H427.374C427.374 127.174 426.276 119.66 424.186 111.51L412.562 114.49ZM415.374 134V213.2H427.374V134H415.374ZM415.374 213.2C415.374 215.216 415.06 216.534 414.691 217.363L425.657 222.237C426.889 219.466 427.374 216.384 427.374 213.2H415.374ZM414.482 217.903C414.216 218.702 413.819 219.273 413.269 219.744L421.079 228.856C423.329 226.927 424.933 224.498 425.866 221.697L414.482 217.903ZM413.34 219.685L374.34 252.085L382.008 261.315L421.008 228.915L413.34 219.685ZM373.932 252.457C374.048 252.341 374.038 252.39 373.755 252.542C373.479 252.69 373.037 252.888 372.377 253.108L376.172 264.492C378.332 263.772 380.656 262.704 382.417 260.943L373.932 252.457ZM372.167 253.182C371.345 253.49 370.275 253.7 368.874 253.7V265.7C371.473 265.7 374.003 265.31 376.381 264.418L372.167 253.182ZM368.874 253.7H323.574V265.7H368.874V253.7ZM323.574 253.7C319.416 253.7 317.554 252.695 316.717 251.857L308.232 260.343C312.194 264.305 317.732 265.7 323.574 265.7V253.7ZM316.529 251.677C315.811 251.019 314.874 249.53 314.874 245.9H302.874C302.874 251.47 304.338 256.781 308.42 260.523L316.529 251.677ZM314.874 245.9V206.9H302.874V245.9H314.874ZM308.874 200.9H300.474V212.9H308.874V200.9ZM294.474 206.9V213.2H306.474V206.9H294.474ZM294.474 213.2C294.474 215.216 294.16 216.534 293.791 217.363L304.757 222.237C305.989 219.466 306.474 216.384 306.474 213.2H294.474ZM293.582 217.903C293.316 218.702 292.919 219.273 292.369 219.744L300.179 228.856C302.429 226.927 304.033 224.498 304.966 221.697L293.582 217.903ZM292.44 219.685L253.44 252.085L261.108 261.315L300.108 228.915L292.44 219.685Z" fill="#23BEEF"/>
</svg>
